PathFileType	4	(X/Y/Z)	s05c0403.trc
DataRate	CameraRate	NumFrames	NumMarkers	Units	OrigDataRate	OrigDataStartFrame	OrigNumFrames
200	200	5	49	mm	200	1500	2000
Frame#	Time	racr			lacr			c7			jug			rlel			rdr			llel			ldr			s2			lic			ric			lasi			rasi			rpsi			lpsi			rgt			lgt			rth1			rth2			rth3			rth4			rlfc			rsh1			rsh2			rsh3			rsh4			rlmal			rmmal			rcal			rtoe			rmt5			lth1			lth2			lth4			lth3			llfc			lmfc			lsh1			lsh2			lsh3			lsh4			llmal			lmmal			lcal			ltoe			lmt5			SBIKE			LBIKE			RBIKE			
		X1	Y1	Z1	X2	Y2	Z2	X3	Y3	Z3	X4	Y4	Z4	X5	Y5	Z5	X6	Y6	Z6	X7	Y7	Z7	X8	Y8	Z8	X9	Y9	Z9	X10	Y10	Z10	X11	Y11	Z11	X12	Y12	Z12	X13	Y13	Z13	X14	Y14	Z14	X15	Y15	Z15	X16	Y16	Z16	X17	Y17	Z17	X18	Y18	Z18	X19	Y19	Z19	X20	Y20	Z20	X21	Y21	Z21	X22	Y22	Z22	X23	Y23	Z23	X24	Y24	Z24	X25	Y25	Z25	X26	Y26	Z26	X27	Y27	Z27	X28	Y28	Z28	X29	Y29	Z29	X30	Y30	Z30	X31	Y31	Z31	X32	Y32	Z32	X33	Y33	Z33	X34	Y34	Z34	X35	Y35	Z35	X36	Y36	Z36	X37	Y37	Z37	X38	Y38	Z38	X39	Y39	Z39	X40	Y40	Z40	X41	Y41	Z41	X42	Y42	Z42	X43	Y43	Z43	X44	Y44	Z44	X45	Y45	Z45	X46	Y46	Z46	X47	Y47	Z47	X48	Y48	Z48	X49	Y49	Z49	
1500	7.5000	809.128317	1245.868732	-133.603568	780.356125	1325.352935	-423.994355	795.434924	1361.579551	-271.288839	737.634044	1206.119624	-298.918820	592.740724	1137.653456	53.530839	675.164137	960.393504	-62.704067	567.497443	1173.427783	-585.381681	679.613071	957.517747	-515.578577	187.314671	1242.643720	-283.928603	339.095896	1239.821743	-416.364855	332.236367	1211.247139	-138.479597	364.606680	1172.965520	-387.125145	355.714395	1149.433432	-170.742620	231.778422	1275.087069	-235.343087	238.451172	1284.759416	-320.777491	236.791476	1094.109498	-125.945967	262.708417	1147.921708	-458.594754	274.414468	979.501315	-106.213426	312.279113	898.858430	-106.067336	304.591284	811.321533	-113.933567	348.053335	905.544838	-113.725727	347.911659	670.219331	-136.707981	287.108859	580.743861	-105.044056	282.495911	492.504058	-115.310877	238.448640	419.075974	-117.323039	311.664722	486.417982	-140.726662	204.066871	288.522279	-124.534596	222.992427	311.499146	-202.752443	130.623530	272.820581	-170.381646	410.715907	173.226683	-155.536277	305.065995	180.676150	-93.523352	355.475613	1033.286983	-469.404679	430.730836	993.770139	-458.006373	453.206921	1017.230258	-438.829292	478.000746	916.394664	-456.030827	547.963686	791.864322	-417.770772	518.442871	784.154073	-311.304688	436.078252	741.800157	-448.661455	369.932556	685.142587	-441.736878	283.031278	667.428049	-447.362842	383.667852	658.048910	-417.418342	178.700786	609.207714	-451.067801	215.416241	606.617607	-373.207407	119.419893	649.992096	-409.856167	199.338120	366.694582	-394.433306	141.911131	455.875471	-463.682297	-169.264050	899.575166	-272.648240	-53.188919	79.458476	-474.606014	-53.269381	79.203691	-77.017790	
1501	7.5050	808.707192	1247.972170	-135.969308	780.374701	1325.488794	-426.646879	794.979650	1362.472836	-273.855271	737.407782	1207.122913	-301.064427	593.580954	1138.471067	52.340057	676.193059	960.209434	-62.717772	566.544257	1172.669735	-586.824015	679.659066	957.565498	-516.171613	187.067759	1240.548476	-281.064283	337.581373	1240.515716	-415.243314	334.017522	1208.043705	-137.519497	363.785750	1173.449316	-386.527858	357.215962	1146.681755	-170.242794	231.642570	1272.613884	-232.255436	237.039661	1283.630626	-317.862559	238.087432	1090.510352	-124.953465	261.900763	1148.517280	-457.659413	272.835322	976.274016	-105.638512	308.582951	894.446432	-105.575815	298.259553	807.243950	-113.773302	344.708093	900.768858	-113.158576	338.529169	665.568460	-136.692764	277.612599	576.247592	-104.780116	273.341101	487.977076	-115.062566	229.516012	414.428607	-117.196081	302.712520	481.864187	-140.311695	196.083808	283.788237	-124.512932	214.893557	306.675978	-202.612463	122.696761	268.757788	-170.227135	401.877997	166.288839	-155.377255	296.187813	174.831267	-93.463906	356.721013	1035.969412	-469.156519	432.981466	998.194636	-457.991941	455.038898	1022.263367	-438.802643	482.166427	922.018195	-455.914126	555.019435	798.779820	-418.099802	525.893566	790.665423	-311.558408	443.491869	749.114343	-448.478037	377.561959	692.401362	-441.601451	290.593260	674.698597	-446.930573	391.241790	665.105797	-417.764332	185.904192	615.491550	-450.071501	222.799998	613.278009	-372.953793	126.231300	656.138503	-409.779477	209.212765	373.411386	-394.527756	150.874773	462.197522	-463.636026	-169.310896	899.533833	-272.707741	-53.236047	79.404601	-474.613000	-53.277161	79.217754	-77.025513	
1502	7.5100	808.623612	1249.635275	-138.239638	780.386357	1325.318373	-429.358340	794.378820	1363.258832	-276.615775	737.027781	1207.946586	-303.194610	594.427448	1139.379824	51.126452	677.395266	960.072032	-62.606561	565.469534	1171.821523	-588.350489	679.660499	957.626326	-516.700117	186.916208	1238.531771	-278.186413	335.915034	1241.228388	-413.817740	335.841605	1204.935969	-136.823053	362.930726	1173.934792	-385.971858	358.689757	1143.932725	-169.989811	231.856178	1270.096200	-229.758048	236.137209	1282.364599	-314.667304	239.247293	1087.292389	-124.325068	261.188352	1149.190990	-456.674309	271.069788	973.368690	-105.125963	305.048350	890.697359	-104.799706	292.295908	803.546226	-113.278534	340.618935	895.551692	-113.582931	329.394905	661.465212	-136.364268	268.282656	572.273656	-104.331473	264.154133	484.101424	-114.580812	220.482133	410.425936	-116.936524	293.742101	477.967928	-139.484400	187.950584	279.723513	-124.205437	206.825491	302.437398	-202.270694	114.574251	265.361152	-170.100298	392.727938	159.947924	-155.200817	287.057835	169.432909	-93.283248	357.880108	1038.736783	-468.977994	435.118097	1002.874337	-458.068878	456.644235	1027.534342	-438.823900	486.029911	927.861964	-456.058908	561.636094	806.096119	-418.625137	534.128539	797.480347	-310.628649	450.887999	756.294956	-448.316395	385.056387	699.437358	-441.592946	298.091179	681.668729	-446.717826	398.928730	671.914202	-418.081687	193.144640	621.453756	-449.643493	230.227643	619.580048	-372.697307	132.934300	661.366755	-409.629909	219.474520	379.805518	-394.608470	160.084094	467.958933	-463.633781	-169.285842	899.565915	-272.651029	-53.228752	79.386058	-474.623054	-53.299310	79.193969	-77.041087	
1503	7.5150	808.062382	1251.490318	-140.652755	780.417507	1324.817522	-432.088199	793.652825	1363.987841	-279.364997	736.333298	1208.499853	-305.111933	595.186567	1140.373046	49.834326	678.495766	959.943399	-62.531078	564.227536	1170.924016	-589.894729	679.495977	957.919184	-517.630328	186.759698	1236.570886	-275.218093	334.302376	1242.131301	-412.416970	337.778390	1202.164022	-135.787511	361.996914	1174.646778	-385.517644	359.092109	1140.673953	-173.001365	232.421703	1267.536282	-227.465176	235.255192	1281.224177	-311.491934	240.145343	1083.993255	-124.056970	260.569882	1150.052630	-455.625618	269.326914	970.709111	-104.577689	301.226393	887.312724	-104.326175	286.476749	800.417770	-112.486852	337.062530	891.248749	-113.126709	320.544072	657.873793	-135.768560	259.343718	568.991490	-103.668451	255.224672	480.782616	-113.904882	211.518025	407.095815	-116.430467	285.004755	474.695315	-138.633589	179.615693	276.366869	-123.833759	198.618275	298.969311	-201.788759	106.433710	262.916543	-169.736949	383.234755	153.904290	-155.073587	277.706997	164.532500	-93.203068	358.875091	1041.912110	-468.848545	437.230705	1007.665983	-457.828387	457.952901	1032.712918	-438.639600	489.655221	933.969559	-456.547179	568.101801	813.546954	-419.251713	540.478554	803.800413	-311.906126	458.185139	763.444671	-448.267943	392.606920	706.290375	-441.623001	305.688103	688.304826	-446.596853	406.663170	678.658985	-418.415503	200.540360	626.957944	-449.328518	237.765286	625.298004	-372.521815	139.697780	666.094676	-409.526251	230.158080	385.786092	-394.643895	169.684409	473.100271	-463.654848	-169.347808	899.549082	-272.630544	-53.228715	79.405711	-474.612708	-53.305627	79.197681	-77.019420	
1504	7.5200	807.796552	1252.891781	-142.994973	780.487840	1324.378819	-436.318474	792.839160	1364.504815	-282.309113	735.694798	1209.003489	-307.337079	595.788136	1141.657939	48.194719	679.319475	959.831198	-62.600818	562.872864	1169.930238	-591.513571	679.401817	958.108754	-518.113370	186.737695	1234.883751	-272.546562	332.486236	1243.124281	-411.086060	339.720940	1199.476489	-134.922293	361.121343	1175.366491	-385.167671	360.808929	1138.677770	-172.394187	234.013088	1264.721297	-224.855572	234.333412	1280.281667	-308.342974	241.246170	1081.135538	-123.651572	260.012194	1151.105592	-454.593438	267.580529	968.669249	-103.900541	297.537304	884.548219	-103.695516	281.154830	798.248778	-110.930530	333.528758	887.806068	-112.599627	312.152829	654.827515	-135.028525	250.854428	566.346894	-102.893639	246.698845	478.103014	-113.079009	202.801320	404.547075	-115.736035	276.580135	472.017972	-137.578584	171.067910	273.886847	-123.066745	190.525833	296.128032	-201.203788	98.148182	261.265663	-169.403071	373.473266	148.492405	-154.800915	268.113699	160.476754	-93.002423	359.811962	1044.971347	-468.641127	438.780581	1012.450562	-457.874486	458.917709	1037.787216	-438.233501	492.977773	939.860424	-456.693770	574.369651	821.060592	-419.800390	547.463832	810.511703	-312.219230	465.456776	770.304106	-448.253425	400.129155	712.969873	-441.696664	313.313834	694.544682	-446.456437	414.405924	685.191734	-418.778462	207.971554	631.865842	-448.933610	245.436704	630.636035	-372.773853	146.460325	670.115912	-409.370590	241.150694	391.254543	-394.694620	179.391199	477.698411	-463.655177	-169.571404	898.689918	-275.153638	-53.242390	79.398378	-474.609157	-53.284666	79.184322	-77.011530	
